<svg width="283" height="294" viewBox="0 0 283 294" fill="none" xmlns="http://www.w3.org/2000/svg">
<rect x="76" y="126" width="19.6364" height="20" rx="4" transform="rotate(-90 76 126)" fill="#EDB98A"/>
<rect x="186" y="126" width="19.6364" height="20" rx="4" transform="rotate(-90 186 126)" fill="#EDB98A"/>
<rect x="118" y="245" width="91.69" height="48.6662" rx="24.3331" transform="rotate(-90 118 245)" fill="#EDB98A"/>
<rect x="82" y="51" width="117" height="135" rx="41" fill="#EDB98A"/>
<path d="M101.63 99.1585C105.545 93.6498 116.278 90.5607 125.523 92.8311C126.596 93.0945 127.679 92.4384 127.942 91.3658C128.206 90.2931 127.55 89.2099 126.477 88.9465C115.741 86.3099 103.312 89.8869 98.3699 96.8413C97.73 97.7417 97.9412 98.9903 98.8416 99.6301C99.7419 100.27 100.991 100.059 101.63 99.1585Z" fill="black" fill-opacity="0.6"/>
<path d="M182.37 99.1585C178.455 93.6498 167.722 90.5607 158.477 92.8311C157.404 93.0945 156.321 92.4384 156.058 91.3658C155.794 90.2931 156.45 89.2099 157.523 88.9465C168.259 86.3099 180.688 89.8869 185.63 96.8413C186.27 97.7417 186.059 98.9903 185.158 99.6301C184.258 100.27 183.009 100.059 182.37 99.1585Z" fill="black" fill-opacity="0.6"/>
<rect width="112" height="44" transform="translate(85 97)" fill="#EDB98A"/>
<path fill-rule="evenodd" clip-rule="evenodd" d="M101.16 119.447C103.007 115.649 107.164 113 111.998 113C116.814 113 120.959 115.63 122.815 119.407C123.367 120.529 122.582 121.447 121.791 120.767C119.34 118.66 115.859 117.344 111.998 117.344C108.257 117.344 104.874 118.579 102.438 120.572C101.547 121.3 100.62 120.558 101.16 119.447Z" fill="black" fill-opacity="0.6"/>
<path fill-rule="evenodd" clip-rule="evenodd" d="M159.16 119.447C161.007 115.649 165.164 113 169.998 113C174.814 113 178.959 115.63 180.815 119.407C181.367 120.529 180.582 121.447 179.791 120.767C177.34 118.66 173.859 117.344 169.998 117.344C166.257 117.344 162.874 118.579 160.438 120.572C159.547 121.3 158.62 120.558 159.16 119.447Z" fill="black" fill-opacity="0.6"/>
<g filter="url(#filter0_d_250_168)">
<path fill-rule="evenodd" clip-rule="evenodd" d="M113.554 142.333C101.772 142.333 92.2205 132.782 92.2205 121C92.2205 118.836 92.5428 116.746 93.1422 114.778H87.3316C86.1043 114.778 85.1094 113.783 85.1094 112.556C85.1094 111.328 86.1043 110.333 87.3316 110.333H94.4427C94.6458 110.333 94.8425 110.361 95.0294 110.412C98.7068 103.992 105.625 99.6667 113.554 99.6667C121.867 99.6667 129.069 104.422 132.59 111.36C134.436 108.591 137.509 106.778 140.987 106.778C144.554 106.778 147.693 108.684 149.522 111.573C153.003 104.519 160.267 99.6667 168.665 99.6667C176.594 99.6667 183.512 103.992 187.189 110.412C187.376 110.361 187.573 110.333 187.776 110.333H194.887C196.114 110.333 197.109 111.328 197.109 112.556C197.109 113.783 196.114 114.778 194.887 114.778H189.077C189.676 116.746 189.998 118.836 189.998 121C189.998 132.782 180.447 142.333 168.665 142.333C156.883 142.333 147.332 132.782 147.332 121C147.332 119.736 147.442 118.498 147.652 117.294C147.577 113.405 144.588 110.333 140.987 110.333C137.666 110.333 134.865 112.947 134.391 116.405C134.716 117.885 134.887 119.422 134.887 121C134.887 132.782 125.336 142.333 113.554 142.333ZM113.554 138.778C123.372 138.778 131.332 130.818 131.332 121C131.332 111.182 123.372 103.222 113.554 103.222C103.735 103.222 95.776 111.182 95.776 121C95.776 130.818 103.735 138.778 113.554 138.778ZM186.443 121C186.443 130.818 178.483 138.778 168.665 138.778C158.847 138.778 150.887 130.818 150.887 121C150.887 111.182 158.847 103.222 168.665 103.222C178.483 103.222 186.443 111.182 186.443 121Z" fill="#252C2F"/>
</g>
<path fill-rule="evenodd" clip-rule="evenodd" d="M199.704 58.9301C200.653 62.3395 202.005 71.4777 199.627 74.5044C198.833 75.5147 193.413 72.6785 191.153 71.4461C189.83 70.7252 188.583 70.0385 187.395 69.3849C171.526 60.6528 166.398 57.831 138.568 58.2307C108.656 58.6603 88.1622 72.492 87.0094 73.9068C86.2074 74.8911 85.1835 77.5193 84.3416 84.8405C84.0751 87.1581 84.0006 90.0578 83.9267 92.9382C83.767 99.1572 83.6096 105.287 81.5266 105.276C78.9317 105.262 78.3672 80.3008 79.4873 70.3987C79.5292 70.0283 79.6002 69.5868 79.6768 69.111C79.9144 67.6336 80.2052 65.8256 79.8423 64.7911C79.6788 64.3253 79.2672 64.0415 78.8452 63.7506C78.185 63.2955 77.4996 62.8229 77.6993 61.6088C77.9244 60.2381 78.8606 60.1085 79.7882 59.9802C80.3939 59.8964 80.9959 59.8131 81.3941 59.3852C82.5944 58.0952 81.8762 57.4242 81.0559 56.6577C80.5713 56.205 80.051 55.7189 79.8696 55.0522C79.1949 52.5728 80.9585 51.8028 82.7282 51.0302C82.8632 50.9713 82.9982 50.9123 83.1322 50.8526C83.8632 50.527 84.3055 50.4152 84.6442 50.3295C85.2747 50.17 85.5456 50.1015 86.6502 48.9141C84.3824 47.2736 83.562 45.0385 86.6673 43.8395C87.262 43.6099 88.286 43.6208 89.3261 43.6319C90.5927 43.6455 91.883 43.6593 92.4503 43.2391C92.6081 43.1223 92.71 42.6817 92.8007 42.2896C92.8649 42.0121 92.9235 41.7588 92.9923 41.6619C94.4287 39.6339 94.3062 38.0933 94.1399 36.0031C94.1152 35.6922 94.0895 35.3691 94.0678 35.0305C93.9302 32.8904 93.9487 30.9258 96.5449 30.712C97.614 30.6241 98.5598 31.1223 99.4921 31.6134C100.071 31.9181 100.644 32.2201 101.238 32.3776C102.169 32.6243 102.408 32.835 102.644 32.8318C102.844 32.8291 103.043 32.6718 103.663 32.2507C104.926 31.3921 105.057 30.0992 105.189 28.7955C105.305 27.6548 105.421 26.5059 106.297 25.6326C107.974 23.9625 109.274 24.9706 110.548 25.9579C111.233 26.4887 111.91 27.0135 112.634 27.1129C115.342 27.4853 115.893 25.9966 116.487 24.3939C116.878 23.3383 117.287 22.2332 118.344 21.578C120.29 20.3716 121.16 21.5283 121.997 22.6421C122.528 23.3475 123.045 24.0358 123.815 24.0956C124.883 24.1783 126.482 22.9472 127.899 21.8555C128.766 21.1884 129.564 20.5733 130.133 20.3417C132.547 19.3588 134.3 20.4091 136.075 21.4725C137.572 22.3697 139.086 23.2763 141.024 22.9786C141.341 22.93 141.634 22.8822 141.908 22.8376C144.29 22.4495 145.214 22.2989 147.702 23.8471C149.5 24.9658 150.383 24.8034 151.679 24.5649C152.324 24.4462 153.071 24.3087 154.084 24.3007C155.266 24.292 156.196 24.8227 157.093 25.3342C157.831 25.7551 158.546 26.1629 159.359 26.2465C159.809 26.293 160.25 26.0844 160.699 25.8718C161.146 25.6601 161.601 25.4444 162.083 25.4734C164.027 25.5897 164.943 27.0411 165.865 28.5009C166.575 29.6271 167.289 30.7583 168.481 31.2853C170.204 32.0476 172.137 31.5462 173.984 31.0669C174.816 30.8509 175.631 30.6394 176.402 30.55C180.615 30.0621 179.888 32.6162 179.115 35.3372C178.776 36.5264 178.429 37.7474 178.481 38.7604C179.702 39.0416 180.933 38.6 182.162 38.159C183.325 37.742 184.485 37.3256 185.635 37.5214C189.25 38.1374 188.033 41.744 187.169 44.3043C187.142 44.3823 187.116 44.4593 187.091 44.5352C187.766 44.5231 188.726 44.3207 189.806 44.093C192.851 43.4507 196.848 42.6078 198.082 45.2781C198.593 46.3816 198.097 47.7038 197.615 48.9923C197.282 49.8813 196.955 50.7541 196.968 51.5281C196.996 53.1312 197.724 54.5681 198.454 56.0076C198.938 56.9641 199.424 57.9218 199.704 58.9301ZM198.27 77.2879C198.541 77.4735 198.724 77.5994 198.771 77.6251C200.64 78.6632 202.12 89.0693 202.192 93.0485C202.237 95.504 202.277 104.868 199.646 104.058C198.844 103.812 197.622 98.8546 197.448 95.9533C197.274 93.0519 195.604 83.181 193.042 78.6394C192.902 78.3913 192.699 78.0984 192.482 77.7843C191.792 76.7844 190.953 75.5695 191.504 74.9015C192.272 73.9707 193.022 74.2975 193.908 74.6843C194.059 74.7499 194.213 74.8172 194.372 74.8804C195.296 75.2477 197.32 76.6359 198.27 77.2879Z" fill="#2E3257"/>
<mask id="mask0_250_168" style="mask-type:luminance" maskUnits="userSpaceOnUse" x="77" y="19" width="126" height="87">
<path fill-rule="evenodd" clip-rule="evenodd" d="M199.704 58.9301C200.653 62.3395 202.005 71.4777 199.627 74.5044C198.833 75.5147 193.413 72.6785 191.153 71.4461C189.83 70.7252 188.583 70.0385 187.395 69.3849C171.526 60.6528 166.398 57.831 138.568 58.2307C108.656 58.6603 88.1622 72.492 87.0094 73.9068C86.2074 74.8911 85.1835 77.5193 84.3416 84.8405C84.0751 87.1581 84.0006 90.0578 83.9267 92.9382C83.767 99.1572 83.6096 105.287 81.5266 105.276C78.9317 105.262 78.3672 80.3008 79.4873 70.3987C79.5292 70.0283 79.6002 69.5868 79.6768 69.111C79.9144 67.6336 80.2052 65.8256 79.8423 64.7911C79.6788 64.3253 79.2672 64.0415 78.8452 63.7506C78.185 63.2955 77.4996 62.8229 77.6993 61.6088C77.9244 60.2381 78.8606 60.1085 79.7882 59.9802C80.3939 59.8964 80.9959 59.8131 81.3941 59.3852C82.5944 58.0952 81.8762 57.4242 81.0559 56.6577C80.5713 56.205 80.051 55.7189 79.8696 55.0522C79.1949 52.5728 80.9585 51.8028 82.7282 51.0302C82.8632 50.9713 82.9982 50.9123 83.1322 50.8526C83.8632 50.527 84.3055 50.4152 84.6442 50.3295C85.2747 50.17 85.5456 50.1015 86.6502 48.9141C84.3824 47.2736 83.562 45.0385 86.6673 43.8395C87.262 43.6099 88.286 43.6208 89.3261 43.6319C90.5927 43.6455 91.883 43.6593 92.4503 43.2391C92.6081 43.1223 92.71 42.6817 92.8007 42.2896C92.8649 42.0121 92.9235 41.7588 92.9923 41.6619C94.4287 39.6339 94.3062 38.0933 94.1399 36.0031C94.1152 35.6922 94.0895 35.3691 94.0678 35.0305C93.9302 32.8904 93.9487 30.9258 96.5449 30.712C97.614 30.6241 98.5598 31.1223 99.4921 31.6134C100.071 31.9181 100.644 32.2201 101.238 32.3776C102.169 32.6243 102.408 32.835 102.644 32.8318C102.844 32.8291 103.043 32.6718 103.663 32.2507C104.926 31.3921 105.057 30.0992 105.189 28.7955C105.305 27.6548 105.421 26.5059 106.297 25.6326C107.974 23.9625 109.274 24.9706 110.548 25.9579C111.233 26.4887 111.91 27.0135 112.634 27.1129C115.342 27.4853 115.893 25.9966 116.487 24.3939C116.878 23.3383 117.287 22.2332 118.344 21.578C120.29 20.3716 121.16 21.5283 121.997 22.6421C122.528 23.3475 123.045 24.0358 123.815 24.0956C124.883 24.1783 126.482 22.9472 127.899 21.8555C128.766 21.1884 129.564 20.5733 130.133 20.3417C132.547 19.3588 134.3 20.4091 136.075 21.4725C137.572 22.3697 139.086 23.2763 141.024 22.9786C141.341 22.93 141.634 22.8822 141.908 22.8376C144.29 22.4495 145.214 22.2989 147.702 23.8471C149.5 24.9658 150.383 24.8034 151.679 24.5649C152.324 24.4462 153.071 24.3087 154.084 24.3007C155.266 24.292 156.196 24.8227 157.093 25.3342C157.831 25.7551 158.546 26.1629 159.359 26.2465C159.809 26.293 160.25 26.0844 160.699 25.8718C161.146 25.6601 161.601 25.4444 162.083 25.4734C164.027 25.5897 164.943 27.0411 165.865 28.5009C166.575 29.6271 167.289 30.7583 168.481 31.2853C170.204 32.0476 172.137 31.5462 173.984 31.0669C174.816 30.8509 175.631 30.6394 176.402 30.55C180.615 30.0621 179.888 32.6162 179.115 35.3372C178.776 36.5264 178.429 37.7474 178.481 38.7604C179.702 39.0416 180.933 38.6 182.162 38.159C183.325 37.742 184.485 37.3256 185.635 37.5214C189.25 38.1374 188.033 41.744 187.169 44.3043C187.142 44.3823 187.116 44.4593 187.091 44.5352C187.766 44.5231 188.726 44.3207 189.806 44.093C192.851 43.4507 196.848 42.6078 198.082 45.2781C198.593 46.3816 198.097 47.7038 197.615 48.9923C197.282 49.8813 196.955 50.7541 196.968 51.5281C196.996 53.1312 197.724 54.5681 198.454 56.0076C198.938 56.9641 199.424 57.9218 199.704 58.9301ZM198.27 77.2879C198.541 77.4735 198.724 77.5994 198.771 77.6251C200.64 78.6632 202.12 89.0693 202.192 93.0485C202.237 95.504 202.277 104.868 199.646 104.058C198.844 103.812 197.622 98.8546 197.448 95.9533C197.274 93.0519 195.604 83.181 193.042 78.6394C192.902 78.3913 192.699 78.0984 192.482 77.7843C191.792 76.7844 190.953 75.5695 191.504 74.9015C192.272 73.9707 193.022 74.2975 193.908 74.6843C194.059 74.7499 194.213 74.8172 194.372 74.8804C195.296 75.2477 197.32 76.6359 198.27 77.2879Z" fill="white"/>
</mask>
<g mask="url(#mask0_250_168)">
<rect x="1.0625" width="280.872" height="294" fill="#2C1B18"/>
</g>
<rect width="98" height="37" transform="translate(92 149)" fill="#EDB98A"/>
<path fill-rule="evenodd" clip-rule="evenodd" d="M123.866 161.721C124.826 169.703 132.131 175.909 141 175.909C149.897 175.909 157.219 169.665 158.143 161.647C158.217 161.002 157.439 159.932 156.465 159.932C142.95 159.932 132.596 159.932 125.653 159.932C124.673 159.932 123.77 160.923 123.866 161.721Z" fill="black" fill-opacity="0.7"/>
<mask id="mask1_250_168" style="mask-type:luminance" maskUnits="userSpaceOnUse" x="123" y="159" width="36" height="17">
<path fill-rule="evenodd" clip-rule="evenodd" d="M123.866 161.721C124.826 169.703 132.131 175.909 141 175.909C149.897 175.909 157.219 169.665 158.143 161.647C158.217 161.002 157.439 159.932 156.465 159.932C142.95 159.932 132.596 159.932 125.653 159.932C124.673 159.932 123.77 160.923 123.866 161.721Z" fill="white"/>
</mask>
<g mask="url(#mask1_250_168)">
<rect x="127.391" y="150.682" width="28.1296" height="13.4545" rx="5" fill="white"/>
<ellipse cx="136.462" cy="178.432" rx="9.98148" ry="9.25" fill="#FF4F6D"/>
<ellipse cx="145.536" cy="178.432" rx="9.98148" ry="9.25" fill="#FF4F6D"/>
</g>
<path fill-rule="evenodd" clip-rule="evenodd" d="M140.515 175.841C128.73 176.219 123.472 181.721 119.513 176.13C116.541 171.932 117.785 164.874 120.561 160.903C124.512 155.251 129.872 157.985 135.865 157.34C137.494 157.165 139.131 156.723 140.515 156C141.899 156.723 143.535 157.165 145.165 157.34C151.158 157.985 156.517 155.251 160.468 160.903C163.245 164.874 164.488 171.932 161.517 176.13C157.557 181.721 152.3 175.463 140.515 175.841ZM197.732 108C194.226 122.075 192.615 136.434 190.073 150.671C189.543 153.639 188.963 156.596 188.347 159.55C188.218 160.17 188.091 162.473 187.465 162.764C185.57 163.648 181.708 158.947 180.675 157.885C178.081 155.219 175.509 152.529 172.35 150.437C165.967 146.21 158.494 143.711 150.718 143.118C147.464 142.869 143.065 143.303 139.999 145.11C136.932 143.303 132.533 142.869 129.279 143.118C121.503 143.711 114.03 146.21 107.647 150.437C104.488 152.529 101.916 155.219 99.322 157.885C98.2893 158.947 94.427 163.648 92.5318 162.764C91.9062 162.473 91.7787 160.17 91.6494 159.55C91.0336 156.596 90.4537 153.639 89.9239 150.671C87.3821 136.434 85.7711 122.075 82.265 108C81.2449 108 80.3498 126.748 80.236 128.495C79.7727 135.589 79.2317 142.525 79.923 149.626C81.1149 161.875 82.3574 177.234 91.9129 186.588C100.547 195.039 113.083 196.806 123.895 202.141C125.287 202.828 127.134 203.676 129.126 204.371C131.223 205.934 135.384 207 140.177 207C145.204 207 149.536 205.827 151.521 204.138C153.262 203.493 154.862 202.753 156.102 202.141C166.913 196.805 179.45 195.039 188.084 186.588C197.64 177.234 198.882 161.875 200.074 149.626C200.765 142.525 200.224 135.589 199.761 128.495C199.647 126.748 198.752 108 197.732 108Z" fill="#252E32"/>
<mask id="mask2_250_168" style="mask-type:luminance" maskUnits="userSpaceOnUse" x="79" y="108" width="122" height="99">
<path fill-rule="evenodd" clip-rule="evenodd" d="M140.515 175.841C128.73 176.219 123.472 181.721 119.513 176.13C116.541 171.932 117.785 164.874 120.561 160.903C124.512 155.251 129.872 157.985 135.865 157.34C137.494 157.165 139.131 156.723 140.515 156C141.899 156.723 143.535 157.165 145.165 157.34C151.158 157.985 156.517 155.251 160.468 160.903C163.245 164.874 164.488 171.932 161.517 176.13C157.557 181.721 152.3 175.463 140.515 175.841ZM197.732 108C194.226 122.075 192.615 136.434 190.073 150.671C189.543 153.639 188.963 156.596 188.347 159.55C188.218 160.17 188.091 162.473 187.465 162.764C185.57 163.648 181.708 158.947 180.675 157.885C178.081 155.219 175.509 152.529 172.35 150.437C165.967 146.21 158.494 143.711 150.718 143.118C147.464 142.869 143.065 143.303 139.999 145.11C136.932 143.303 132.533 142.869 129.279 143.118C121.503 143.711 114.03 146.21 107.647 150.437C104.488 152.529 101.916 155.219 99.322 157.885C98.2893 158.947 94.427 163.648 92.5318 162.764C91.9062 162.473 91.7787 160.17 91.6494 159.55C91.0336 156.596 90.4537 153.639 89.9239 150.671C87.3821 136.434 85.7711 122.075 82.265 108C81.2449 108 80.3498 126.748 80.236 128.495C79.7727 135.589 79.2317 142.525 79.923 149.626C81.1149 161.875 82.3574 177.234 91.9129 186.588C100.547 195.039 113.083 196.806 123.895 202.141C125.287 202.828 127.134 203.676 129.126 204.371C131.223 205.934 135.384 207 140.177 207C145.204 207 149.536 205.827 151.521 204.138C153.262 203.493 154.862 202.753 156.102 202.141C166.913 196.805 179.45 195.039 188.084 186.588C197.64 177.234 198.882 161.875 200.074 149.626C200.765 142.525 200.224 135.589 199.761 128.495C199.647 126.748 198.752 108 197.732 108Z" fill="white"/>
</mask>
<g mask="url(#mask2_250_168)">
<rect x="54" y="82" width="172" height="152" fill="#724133"/>
</g>
<path fill-rule="evenodd" clip-rule="evenodd" d="M142 240.052C156.912 240.052 169 228.859 169 215.052C169 214.036 168.935 213.035 168.808 212.052H170C209.764 212.052 242 244.287 242 284.052V293H42V284.052C42 244.287 74.2355 212.052 114 212.052H115.192C115.065 213.035 115 214.036 115 215.052C115 228.859 127.088 240.052 142 240.052Z" fill="#E6E6E6"/>
<mask id="mask3_250_168" style="mask-type:luminance" maskUnits="userSpaceOnUse" x="42" y="212" width="200" height="81">
<path fill-rule="evenodd" clip-rule="evenodd" d="M142 240.052C156.912 240.052 169 228.859 169 215.052C169 214.036 168.935 213.035 168.808 212.052H170C209.764 212.052 242 244.287 242 284.052V293H42V284.052C42 244.287 74.2355 212.052 114 212.052H115.192C115.065 213.035 115 214.036 115 215.052C115 228.859 127.088 240.052 142 240.052Z" fill="white"/>
</mask>
<g mask="url(#mask3_250_168)">
<rect x="10" y="183" width="264" height="110" fill="#E6E6E6"/>
</g>
<path fill-rule="evenodd" clip-rule="evenodd" d="M173.638 293C177.039 280.92 179 266.709 179 251.5C179 237.194 177.265 223.771 174.229 212.174C212.025 214.363 242 245.707 242 284.052V293H173.638ZM111.362 293H42V284.052C42 245.365 72.5123 213.804 110.785 212.122C107.74 223.731 106 237.173 106 251.5C106 266.709 107.961 280.92 111.362 293Z" fill="#3A4C5A"/>
<path fill-rule="evenodd" clip-rule="evenodd" d="M191 269L200.556 261.833C201.999 260.751 203.988 260.768 205.412 261.876L212 267L191 269Z" fill="#E6E6E6"/>
<path fill-rule="evenodd" clip-rule="evenodd" d="M111 211C105 240 116 293 116 293H100L86 257L92 248L86 242L105 212C105 212 108.041 211.054 111 211Z" fill="#2F4351"/>
<path fill-rule="evenodd" clip-rule="evenodd" d="M173 211C179 240 168 293 168 293H184L198 257L192 248L198 242L179 212C179 212 175.959 211.054 173 211Z" fill="#2F4351"/>
<path fill-rule="evenodd" clip-rule="evenodd" d="M118 204.539C111.228 209.136 107 215.656 107 222.888C107 230.289 111.428 236.945 118.48 241.557L124.421 236.877L129 237.208L128 234.057L128.078 233.996C121.978 230.853 118 225.7 118 219.877V204.539ZM166 219.877C166 225.7 162.022 230.853 155.922 233.996L156 234.057L155 237.208L159.579 236.877L165.52 241.557C172.572 236.945 177 230.289 177 222.888C177 215.656 172.772 209.136 166 204.539V219.877Z" fill="#F2F2F2"/>
<defs>
<filter id="filter0_d_250_168" x="85.1094" y="99.6667" width="112" height="44.6667" filterUnits="userSpaceOnUse" color-interpolation-filters="sRGB">
<feFlood flood-opacity="0" result="BackgroundImageFix"/>
<feColorMatrix in="SourceAlpha" type="matrix" values="0 0 0 0 0 0 0 0 0 0 0 0 0 0 0 0 0 0 127 0" result="hardAlpha"/>
<feOffset dy="2"/>
<feColorMatrix type="matrix" values="0 0 0 0 0 0 0 0 0 0 0 0 0 0 0 0 0 0 0.1 0"/>
<feBlend mode="normal" in2="BackgroundImageFix" result="effect1_dropShadow_250_168"/>
<feBlend mode="normal" in="SourceGraphic" in2="effect1_dropShadow_250_168" result="shape"/>
</filter>
</defs>
</svg>
