<svg width="601" height="602" viewBox="0 0 601 602" fill="none" xmlns="http://www.w3.org/2000/svg">
<circle cx="301" cy="300" r="298.5" stroke="#D9D9D9" stroke-width="3"/>
<path d="M598 300C599.657 300 601.002 298.656 600.985 296.999C600.43 241.52 584.5 187.26 554.937 140.263C524.842 92.4202 481.843 54.0521 430.895 29.5793C379.946 5.10641 323.12 -4.47561 266.963 1.93707C211.801 8.23622 159.489 29.717 115.836 63.9613C114.532 64.9839 114.324 66.8737 115.359 68.167V68.167C116.395 69.4603 118.283 69.6674 119.586 68.645C162.357 35.1072 213.605 14.0692 267.644 7.89833C322.678 1.6139 378.367 11.0043 428.297 34.9877C478.227 58.9711 520.365 96.5718 549.859 143.458C578.819 189.497 594.43 242.651 594.985 296.999C595.002 298.656 596.343 300 598 300V300Z" fill="#252E32"/>
<path d="M3 302C1.34315 302 -0.00156442 303.344 0.0150031 305.001C0.569786 360.48 16.5001 414.74 46.0626 461.737C76.1578 509.58 119.157 547.948 170.105 572.421C221.054 596.894 277.88 606.476 334.037 600.063C389.199 593.764 441.511 572.283 485.164 538.039C486.468 537.016 486.676 535.126 485.641 533.833V533.833C484.605 532.54 482.717 532.333 481.414 533.355C438.643 566.893 387.395 587.931 333.356 594.102C278.322 600.386 222.633 590.996 172.703 567.012C122.773 543.029 80.6347 505.428 51.1413 458.542C22.1808 412.503 6.56988 359.349 6.01531 305.001C5.9984 303.344 4.65685 302 3 302V302Z" fill="#252E32"/>
</svg>
