<svg width="1164" height="341" viewBox="0 0 1164 341" fill="none" xmlns="http://www.w3.org/2000/svg">
<g clip-path="url(#clip0_257_79)">
<path d="M88.2 0V25.6H108.1V213.6H70.2V71H88V45.3H0V71H19.9V236.2L52.2 269.2H108.1V307.3H88.2V340.3H181.6V307.3H161.7V269.2H217.6L249.9 236.2V71H269.8V45.3H181.8V71H199.6V213.6H161.7V25.6H181.6V0L88.2 0Z" fill="#990000"/>
</g>
<path d="M357.032 143V53.4H370.728L409.896 118.808H402.728L441.256 53.4H454.952L455.08 143H439.336L439.208 78.104H442.536L409.768 132.76H402.344L369.064 78.104H372.904V143H357.032ZM507.058 144.28C500.061 144.28 493.362 143.299 486.962 141.336C480.562 139.288 475.485 136.685 471.73 133.528L477.49 120.6C481.074 123.416 485.511 125.763 490.802 127.64C496.093 129.517 501.511 130.456 507.058 130.456C511.751 130.456 515.549 129.944 518.45 128.92C521.351 127.896 523.485 126.531 524.85 124.824C526.215 123.032 526.898 121.027 526.898 118.808C526.898 116.077 525.917 113.901 523.954 112.28C521.991 110.573 519.431 109.251 516.274 108.312C513.202 107.288 509.746 106.349 505.906 105.496C502.151 104.643 498.354 103.661 494.514 102.552C490.759 101.357 487.303 99.864 484.146 98.072C481.074 96.1947 478.557 93.72 476.594 90.648C474.631 87.576 473.65 83.6507 473.65 78.872C473.65 74.008 474.93 69.5707 477.49 65.56C480.135 61.464 484.103 58.2213 489.394 55.832C494.77 53.3573 501.554 52.12 509.746 52.12C515.122 52.12 520.455 52.8027 525.746 54.168C531.037 55.5333 535.645 57.496 539.57 60.056L534.322 72.984C530.311 70.5947 526.173 68.8453 521.906 67.736C517.639 66.5413 513.543 65.944 509.618 65.944C505.01 65.944 501.255 66.4987 498.354 67.608C495.538 68.7173 493.447 70.168 492.082 71.96C490.802 73.752 490.162 75.8 490.162 78.104C490.162 80.8347 491.101 83.0533 492.978 84.76C494.941 86.3813 497.458 87.6613 500.53 88.6C503.687 89.5387 507.186 90.4773 511.026 91.416C514.866 92.2693 518.663 93.2507 522.418 94.36C526.258 95.4693 529.714 96.92 532.786 98.712C535.943 100.504 538.461 102.936 540.338 106.008C542.301 109.08 543.282 112.963 543.282 117.656C543.282 122.435 541.959 126.872 539.314 130.968C536.754 134.979 532.786 138.221 527.41 140.696C522.034 143.085 515.25 144.28 507.058 144.28ZM636.629 144.28C629.802 144.28 623.445 143.171 617.557 140.952C611.754 138.648 606.677 135.448 602.325 131.352C598.058 127.171 594.73 122.264 592.341 116.632C589.952 111 588.757 104.856 588.757 98.2C588.757 91.544 589.952 85.4 592.341 79.768C594.73 74.136 598.101 69.272 602.453 65.176C606.805 60.9947 611.882 57.7947 617.685 55.576C623.488 53.272 629.845 52.12 636.757 52.12C644.096 52.12 650.794 53.4 656.853 55.96C662.912 58.4347 668.032 62.1467 672.213 67.096L661.461 77.208C658.218 73.7093 654.592 71.1067 650.581 69.4C646.57 67.608 642.218 66.712 637.525 66.712C632.832 66.712 628.522 67.48 624.597 69.016C620.757 70.552 617.386 72.728 614.485 75.544C611.669 78.36 609.45 81.688 607.829 85.528C606.293 89.368 605.525 93.592 605.525 98.2C605.525 102.808 606.293 107.032 607.829 110.872C609.45 114.712 611.669 118.04 614.485 120.856C617.386 123.672 620.757 125.848 624.597 127.384C628.522 128.92 632.832 129.688 637.525 129.688C642.218 129.688 646.57 128.835 650.581 127.128C654.592 125.336 658.218 122.648 661.461 119.064L672.213 129.304C668.032 134.168 662.912 137.88 656.853 140.44C650.794 143 644.053 144.28 636.629 144.28ZM715.808 144.28C708.811 144.28 702.112 143.299 695.712 141.336C689.312 139.288 684.235 136.685 680.48 133.528L686.24 120.6C689.824 123.416 694.261 125.763 699.552 127.64C704.843 129.517 710.261 130.456 715.808 130.456C720.501 130.456 724.299 129.944 727.2 128.92C730.101 127.896 732.235 126.531 733.6 124.824C734.965 123.032 735.648 121.027 735.648 118.808C735.648 116.077 734.667 113.901 732.704 112.28C730.741 110.573 728.181 109.251 725.024 108.312C721.952 107.288 718.496 106.349 714.656 105.496C710.901 104.643 707.104 103.661 703.264 102.552C699.509 101.357 696.053 99.864 692.896 98.072C689.824 96.1947 687.307 93.72 685.344 90.648C683.381 87.576 682.4 83.6507 682.4 78.872C682.4 74.008 683.68 69.5707 686.24 65.56C688.885 61.464 692.853 58.2213 698.144 55.832C703.52 53.3573 710.304 52.12 718.496 52.12C723.872 52.12 729.205 52.8027 734.496 54.168C739.787 55.5333 744.395 57.496 748.32 60.056L743.072 72.984C739.061 70.5947 734.923 68.8453 730.656 67.736C726.389 66.5413 722.293 65.944 718.368 65.944C713.76 65.944 710.005 66.4987 707.104 67.608C704.288 68.7173 702.197 70.168 700.832 71.96C699.552 73.752 698.912 75.8 698.912 78.104C698.912 80.8347 699.851 83.0533 701.728 84.76C703.691 86.3813 706.208 87.6613 709.28 88.6C712.437 89.5387 715.936 90.4773 719.776 91.416C723.616 92.2693 727.413 93.2507 731.168 94.36C735.008 95.4693 738.464 96.92 741.536 98.712C744.693 100.504 747.211 102.936 749.088 106.008C751.051 109.08 752.032 112.963 752.032 117.656C752.032 122.435 750.709 126.872 748.064 130.968C745.504 134.979 741.536 138.221 736.16 140.696C730.784 143.085 724 144.28 715.808 144.28ZM858.179 169.112C849.134 169.112 840.899 167.661 833.475 164.76C826.051 161.859 819.651 157.763 814.275 152.472C808.899 147.181 804.76 140.995 801.859 133.912C798.958 126.744 797.507 118.936 797.507 110.488C797.507 102.04 798.958 94.2747 801.859 87.192C804.76 80.1093 808.899 73.9653 814.275 68.76C819.736 63.5547 826.222 59.5013 833.731 56.6C841.24 53.6987 849.56 52.248 858.691 52.248C867.48 52.248 875.544 53.656 882.883 56.472C890.222 59.2027 896.536 63.0853 901.827 68.12C907.203 73.0693 911.342 78.9573 914.243 85.784C917.23 92.6107 918.723 100.12 918.723 108.312C918.723 115.651 917.742 122.008 915.779 127.384C913.816 132.675 911 136.728 907.331 139.544C903.747 142.36 899.352 143.768 894.147 143.768C888.856 143.768 884.632 142.189 881.475 139.032C878.403 135.875 876.867 131.309 876.867 125.336V118.04L877.379 110.744L876.227 94.104V79.512H890.435V123.032C890.435 126.275 891.075 128.579 892.355 129.944C893.72 131.224 895.299 131.864 897.091 131.864C899.395 131.864 901.358 130.968 902.979 129.176C904.6 127.384 905.795 124.739 906.563 121.24C907.416 117.741 907.843 113.517 907.843 108.568C907.843 101.741 906.648 95.512 904.259 89.88C901.955 84.248 898.584 79.4267 894.147 75.416C889.795 71.32 884.59 68.2053 878.531 66.072C872.558 63.8533 865.944 62.744 858.691 62.744C851.267 62.744 844.526 63.9387 838.467 66.328C832.408 68.632 827.203 71.9173 822.851 76.184C818.499 80.4507 815.128 85.528 812.739 91.416C810.435 97.2187 809.283 103.576 809.283 110.488C809.283 117.571 810.435 124.056 812.739 129.944C815.043 135.832 818.328 140.867 822.595 145.048C826.947 149.315 832.11 152.6 838.083 154.904C844.056 157.293 850.755 158.488 858.179 158.488C862.104 158.488 866.243 158.019 870.595 157.08C874.947 156.227 879.086 154.819 883.011 152.856L886.467 163.096C882.542 165.059 878.019 166.552 872.899 167.576C867.779 168.6 862.872 169.112 858.179 169.112ZM854.851 143.768C848.963 143.768 843.715 142.403 839.107 139.672C834.499 136.856 830.83 133.016 828.099 128.152C825.454 123.203 824.131 117.528 824.131 111.128C824.131 104.813 825.454 99.224 828.099 94.36C830.744 89.4107 834.371 85.5707 838.979 82.84C843.672 80.1093 848.963 78.744 854.851 78.744C860.568 78.744 865.56 80.024 869.827 82.584C874.094 85.0587 877.422 88.6853 879.811 93.464C882.2 98.2427 883.395 104.131 883.395 111.128C883.395 118.125 882.243 124.056 879.939 128.92C877.635 133.784 874.35 137.496 870.083 140.056C865.816 142.531 860.739 143.768 854.851 143.768ZM857.539 131.352C861.208 131.352 864.451 130.584 867.267 129.048C870.083 127.427 872.302 125.08 873.923 122.008C875.63 118.936 876.483 115.309 876.483 111.128C876.483 106.861 875.63 103.277 873.923 100.376C872.302 97.3893 870.083 95.128 867.267 93.592C864.451 91.9707 861.208 91.16 857.539 91.16C853.784 91.16 850.456 91.9707 847.555 93.592C844.739 95.2133 842.52 97.5173 840.899 100.504C839.363 103.491 838.595 107.032 838.595 111.128C838.595 115.309 839.363 118.893 840.899 121.88C842.52 124.867 844.739 127.213 847.555 128.92C850.456 130.541 853.784 131.352 857.539 131.352ZM936.282 143V53.4H952.922V143H936.282ZM1015.69 144.28C1003.4 144.28 993.754 140.824 986.757 133.912C979.845 127 976.389 117.016 976.389 103.96V53.4H993.029V103.32C993.029 112.536 994.992 119.235 998.917 123.416C1002.93 127.597 1008.56 129.688 1015.81 129.688C1023.07 129.688 1028.66 127.597 1032.58 123.416C1036.51 119.235 1038.47 112.536 1038.47 103.32V53.4H1054.85V103.96C1054.85 117.016 1051.35 127 1044.36 133.912C1037.45 140.824 1027.89 144.28 1015.69 144.28ZM1078.16 143V53.4H1120.14C1130.89 53.4 1139.09 55.5333 1144.72 59.8C1150.35 63.9813 1153.17 69.6133 1153.17 76.696C1153.17 81.4747 1152.06 85.5707 1149.84 88.984C1147.62 92.312 1144.63 94.9147 1140.88 96.792C1137.21 98.584 1133.2 99.48 1128.85 99.48L1131.15 94.872C1136.18 94.872 1140.71 95.8107 1144.72 97.688C1148.73 99.48 1151.89 102.125 1154.19 105.624C1156.58 109.123 1157.77 113.475 1157.77 118.68C1157.77 126.36 1154.83 132.333 1148.94 136.6C1143.05 140.867 1134.31 143 1122.7 143H1078.16ZM1094.8 129.944H1121.68C1127.91 129.944 1132.69 128.92 1136.01 126.872C1139.34 124.824 1141.01 121.539 1141.01 117.016C1141.01 112.579 1139.34 109.336 1136.01 107.288C1132.69 105.155 1127.91 104.088 1121.68 104.088H1093.52V91.16H1118.35C1124.15 91.16 1128.59 90.136 1131.66 88.088C1134.82 86.04 1136.4 82.968 1136.4 78.872C1136.4 74.6907 1134.82 71.576 1131.66 69.528C1128.59 67.48 1124.15 66.456 1118.35 66.456H1094.8V129.944Z" fill="black"/>
<path d="M385.416 298.96C380.168 298.96 375.336 298.128 370.92 296.464C366.568 294.736 362.76 292.336 359.496 289.264C356.232 286.128 353.704 282.448 351.912 278.224C350.12 274 349.224 269.392 349.224 264.4C349.224 259.408 350.12 254.8 351.912 250.576C353.704 246.352 356.232 242.704 359.496 239.632C362.824 236.496 366.696 234.096 371.112 232.432C375.528 230.704 380.36 229.84 385.608 229.84C391.304 229.84 396.424 230.768 400.968 232.624C405.576 234.48 409.448 237.2 412.584 240.784L404.712 248.464C402.088 245.84 399.24 243.92 396.168 242.704C393.16 241.424 389.832 240.784 386.184 240.784C382.664 240.784 379.4 241.36 376.392 242.512C373.384 243.664 370.792 245.296 368.616 247.408C366.44 249.52 364.744 252.016 363.528 254.896C362.376 257.776 361.8 260.944 361.8 264.4C361.8 267.792 362.376 270.928 363.528 273.808C364.744 276.688 366.44 279.216 368.616 281.392C370.792 283.504 373.352 285.136 376.296 286.288C379.24 287.44 382.504 288.016 386.088 288.016C389.416 288.016 392.616 287.504 395.688 286.48C398.824 285.392 401.8 283.6 404.616 281.104L411.72 290.416C408.2 293.232 404.104 295.376 399.432 296.848C394.824 298.256 390.152 298.96 385.416 298.96ZM399.912 288.784V263.632H411.72V290.416L399.912 288.784ZM450.068 298.672C444.82 298.672 440.148 297.552 436.052 295.312C431.956 293.008 428.724 289.872 426.356 285.904C423.988 281.936 422.804 277.424 422.804 272.368C422.804 267.248 423.988 262.736 426.356 258.832C428.724 254.864 431.956 251.76 436.052 249.52C440.148 247.28 444.82 246.16 450.068 246.16C455.38 246.16 460.084 247.28 464.18 249.52C468.34 251.76 471.572 254.832 473.876 258.736C476.244 262.64 477.428 267.184 477.428 272.368C477.428 277.424 476.244 281.936 473.876 285.904C471.572 289.872 468.34 293.008 464.18 295.312C460.084 297.552 455.38 298.672 450.068 298.672ZM450.068 288.4C453.012 288.4 455.636 287.76 457.94 286.48C460.244 285.2 462.036 283.344 463.316 280.912C464.66 278.48 465.332 275.632 465.332 272.368C465.332 269.04 464.66 266.192 463.316 263.824C462.036 261.392 460.244 259.536 457.94 258.256C455.636 256.976 453.044 256.336 450.164 256.336C447.22 256.336 444.596 256.976 442.292 258.256C440.052 259.536 438.26 261.392 436.916 263.824C435.572 266.192 434.9 269.04 434.9 272.368C434.9 275.632 435.572 278.48 436.916 280.912C438.26 283.344 440.052 285.2 442.292 286.48C444.596 287.76 447.188 288.4 450.068 288.4ZM563.819 230.8H576.299V298H563.819V230.8ZM529.067 298H516.587V230.8H529.067V298ZM564.779 269.2H528.011V258.544H564.779V269.2ZM616.193 298.672C610.945 298.672 606.273 297.552 602.177 295.312C598.081 293.008 594.849 289.872 592.481 285.904C590.113 281.936 588.929 277.424 588.929 272.368C588.929 267.248 590.113 262.736 592.481 258.832C594.849 254.864 598.081 251.76 602.177 249.52C606.273 247.28 610.945 246.16 616.193 246.16C621.505 246.16 626.209 247.28 630.305 249.52C634.465 251.76 637.697 254.832 640.001 258.736C642.369 262.64 643.553 267.184 643.553 272.368C643.553 277.424 642.369 281.936 640.001 285.904C637.697 289.872 634.465 293.008 630.305 295.312C626.209 297.552 621.505 298.672 616.193 298.672ZM616.193 288.4C619.137 288.4 621.761 287.76 624.065 286.48C626.369 285.2 628.161 283.344 629.441 280.912C630.785 278.48 631.457 275.632 631.457 272.368C631.457 269.04 630.785 266.192 629.441 263.824C628.161 261.392 626.369 259.536 624.065 258.256C621.761 256.976 619.169 256.336 616.289 256.336C613.345 256.336 610.721 256.976 608.417 258.256C606.177 259.536 604.385 261.392 603.041 263.824C601.697 266.192 601.025 269.04 601.025 272.368C601.025 275.632 601.697 278.48 603.041 280.912C604.385 283.344 606.177 285.2 608.417 286.48C610.721 287.76 613.313 288.4 616.193 288.4ZM678.068 298.672C672.82 298.672 668.148 297.552 664.052 295.312C659.956 293.008 656.724 289.872 654.356 285.904C651.988 281.936 650.804 277.424 650.804 272.368C650.804 267.248 651.988 262.736 654.356 258.832C656.724 254.864 659.956 251.76 664.052 249.52C668.148 247.28 672.82 246.16 678.068 246.16C683.38 246.16 688.084 247.28 692.18 249.52C696.34 251.76 699.572 254.832 701.876 258.736C704.244 262.64 705.428 267.184 705.428 272.368C705.428 277.424 704.244 281.936 701.876 285.904C699.572 289.872 696.34 293.008 692.18 295.312C688.084 297.552 683.38 298.672 678.068 298.672ZM678.068 288.4C681.012 288.4 683.636 287.76 685.94 286.48C688.244 285.2 690.036 283.344 691.316 280.912C692.66 278.48 693.332 275.632 693.332 272.368C693.332 269.04 692.66 266.192 691.316 263.824C690.036 261.392 688.244 259.536 685.94 258.256C683.636 256.976 681.044 256.336 678.164 256.336C675.22 256.336 672.596 256.976 670.292 258.256C668.052 259.536 666.26 261.392 664.916 263.824C663.572 266.192 662.9 269.04 662.9 272.368C662.9 275.632 663.572 278.48 664.916 280.912C666.26 283.344 668.052 285.2 670.292 286.48C672.596 287.76 675.188 288.4 678.068 288.4ZM732.743 298.672C728.455 298.672 724.327 298.128 720.359 297.04C716.455 295.888 713.351 294.512 711.047 292.912L715.655 283.792C717.959 285.264 720.711 286.48 723.911 287.44C727.111 288.4 730.311 288.88 733.511 288.88C737.287 288.88 740.007 288.368 741.671 287.344C743.399 286.32 744.263 284.944 744.263 283.216C744.263 281.808 743.687 280.752 742.535 280.048C741.383 279.28 739.879 278.704 738.023 278.32C736.167 277.936 734.087 277.584 731.783 277.264C729.543 276.944 727.271 276.528 724.967 276.016C722.727 275.44 720.679 274.64 718.823 273.616C716.967 272.528 715.463 271.088 714.311 269.296C713.159 267.504 712.583 265.136 712.583 262.192C712.583 258.928 713.511 256.112 715.367 253.744C717.223 251.312 719.815 249.456 723.143 248.176C726.535 246.832 730.535 246.16 735.143 246.16C738.599 246.16 742.087 246.544 745.607 247.312C749.127 248.08 752.039 249.168 754.343 250.576L749.735 259.696C747.303 258.224 744.839 257.232 742.343 256.72C739.911 256.144 737.479 255.856 735.047 255.856C731.399 255.856 728.679 256.4 726.887 257.488C725.159 258.576 724.295 259.952 724.295 261.616C724.295 263.152 724.871 264.304 726.023 265.072C727.175 265.84 728.679 266.448 730.535 266.896C732.391 267.344 734.439 267.728 736.679 268.048C738.983 268.304 741.255 268.72 743.495 269.296C745.735 269.872 747.783 270.672 749.639 271.696C751.559 272.656 753.095 274.032 754.247 275.824C755.399 277.616 755.975 279.952 755.975 282.832C755.975 286.032 755.015 288.816 753.095 291.184C751.239 293.552 748.583 295.408 745.127 296.752C741.671 298.032 737.543 298.672 732.743 298.672ZM766.31 298V246.736H778.31V298H766.31ZM772.358 238.288C770.118 238.288 768.262 237.584 766.79 236.176C765.382 234.768 764.678 233.072 764.678 231.088C764.678 229.04 765.382 227.344 766.79 226C768.262 224.592 770.118 223.888 772.358 223.888C774.598 223.888 776.422 224.56 777.83 225.904C779.302 227.184 780.038 228.816 780.038 230.8C780.038 232.912 779.334 234.704 777.926 236.176C776.518 237.584 774.662 238.288 772.358 238.288ZM818.156 298.672C812.46 298.672 807.468 297.552 803.18 295.312C798.956 293.008 795.66 289.872 793.292 285.904C790.988 281.936 789.836 277.424 789.836 272.368C789.836 267.248 790.956 262.736 793.196 258.832C795.5 254.864 798.636 251.76 802.604 249.52C806.636 247.28 811.212 246.16 816.332 246.16C821.324 246.16 825.772 247.248 829.676 249.424C833.58 251.6 836.652 254.672 838.892 258.64C841.132 262.608 842.252 267.28 842.252 272.656C842.252 273.168 842.22 273.744 842.156 274.384C842.156 275.024 842.124 275.632 842.06 276.208H799.34V268.24H835.724L831.02 270.736C831.084 267.792 830.476 265.2 829.196 262.96C827.916 260.72 826.156 258.96 823.916 257.68C821.74 256.4 819.212 255.76 816.332 255.76C813.388 255.76 810.796 256.4 808.556 257.68C806.38 258.96 804.652 260.752 803.372 263.056C802.156 265.296 801.548 267.952 801.548 271.024V272.944C801.548 276.016 802.252 278.736 803.66 281.104C805.068 283.472 807.052 285.296 809.612 286.576C812.172 287.856 815.116 288.496 818.444 288.496C821.324 288.496 823.916 288.048 826.22 287.152C828.524 286.256 830.572 284.848 832.364 282.928L838.796 290.32C836.492 293.008 833.58 295.088 830.06 296.56C826.604 297.968 822.636 298.672 818.156 298.672ZM853.778 298V246.736H865.202V260.848L863.858 256.72C865.394 253.264 867.794 250.64 871.058 248.848C874.386 247.056 878.514 246.16 883.442 246.16V257.584C882.93 257.456 882.45 257.392 882.002 257.392C881.554 257.328 881.106 257.296 880.658 257.296C876.114 257.296 872.498 258.64 869.81 261.328C867.122 263.952 865.778 267.888 865.778 273.136V298H853.778ZM909.931 298.672C905.643 298.672 901.515 298.128 897.547 297.04C893.643 295.888 890.539 294.512 888.235 292.912L892.843 283.792C895.147 285.264 897.899 286.48 901.099 287.44C904.299 288.4 907.499 288.88 910.699 288.88C914.475 288.88 917.195 288.368 918.859 287.344C920.587 286.32 921.451 284.944 921.451 283.216C921.451 281.808 920.875 280.752 919.723 280.048C918.571 279.28 917.067 278.704 915.211 278.32C913.355 277.936 911.275 277.584 908.971 277.264C906.731 276.944 904.459 276.528 902.155 276.016C899.915 275.44 897.867 274.64 896.011 273.616C894.155 272.528 892.651 271.088 891.499 269.296C890.347 267.504 889.771 265.136 889.771 262.192C889.771 258.928 890.699 256.112 892.555 253.744C894.411 251.312 897.003 249.456 900.331 248.176C903.723 246.832 907.723 246.16 912.331 246.16C915.787 246.16 919.275 246.544 922.795 247.312C926.315 248.08 929.227 249.168 931.531 250.576L926.923 259.696C924.491 258.224 922.027 257.232 919.531 256.72C917.099 256.144 914.667 255.856 912.235 255.856C908.587 255.856 905.867 256.4 904.075 257.488C902.347 258.576 901.483 259.952 901.483 261.616C901.483 263.152 902.059 264.304 903.211 265.072C904.363 265.84 905.867 266.448 907.723 266.896C909.579 267.344 911.627 267.728 913.867 268.048C916.171 268.304 918.443 268.72 920.683 269.296C922.923 269.872 924.971 270.672 926.827 271.696C928.747 272.656 930.283 274.032 931.435 275.824C932.587 277.616 933.163 279.952 933.163 282.832C933.163 286.032 932.203 288.816 930.283 291.184C928.427 293.552 925.771 295.408 922.315 296.752C918.859 298.032 914.731 298.672 909.931 298.672Z" fill="#848484"/>
<defs>
<clipPath id="clip0_257_79">
<rect width="270" height="341" fill="white"/>
</clipPath>
</defs>
</svg>
