<svg width="202" height="101" viewBox="0 0 202 101" fill="none" xmlns="http://www.w3.org/2000/svg">
<path d="M44.6797 64.9863C44.8099 64.3613 45.1355 63.8535 45.6562 63.4629C46.2031 63.0462 46.8151 62.6686 47.4922 62.3301C48.1953 61.9915 48.9245 61.679 49.6797 61.3926C50.4349 61.0801 51.125 60.7545 51.75 60.416C52.401 60.0775 52.935 59.6868 53.3517 59.2441C53.7683 58.7754 53.9767 58.2155 53.9767 57.5644C53.9767 56.7311 53.7552 56.041 53.3125 55.4941C52.8958 54.9472 52.3229 54.4785 51.5938 54.0879C50.8906 53.6972 50.0834 53.3717 49.172 53.1113C48.2605 52.8509 47.323 52.5905 46.3595 52.3301C45.422 52.0436 44.4974 51.7441 43.5859 51.4316C42.6745 51.0931 41.8542 50.6764 41.125 50.1816C40.4219 49.6868 39.849 49.0879 39.4062 48.3848C38.9897 47.6816 38.7812 46.8092 38.7812 45.7676C38.7812 44.9082 38.9506 44.1009 39.2892 43.3457C39.6537 42.5644 40.1225 41.8353 40.6954 41.1582C41.2944 40.4551 41.9715 39.817 42.7267 39.2441C43.5079 38.6712 44.3151 38.1894 45.1484 37.7988C46.0078 37.4082 46.8673 37.1087 47.7267 36.9004C48.586 36.666 49.3803 36.5488 50.1095 36.5488H50.5392C50.7735 36.6269 51.086 36.7571 51.4767 36.9394C51.8673 37.1217 52.2449 37.304 52.6095 37.4863C52.9741 37.6426 53.2866 37.7988 53.547 37.9551C53.8074 38.0853 53.9375 38.1634 53.9375 38.1894V39.0879C53.4427 39.14 52.8047 39.2441 52.0234 39.4004C51.2422 39.5306 50.4219 39.7129 49.5625 39.9472C48.7031 40.1816 47.8308 40.4811 46.9454 40.8457C46.06 41.1842 45.2656 41.5879 44.5625 42.0566C43.8594 42.5254 43.2865 43.0722 42.8438 43.6972C42.401 44.2962 42.1797 44.9863 42.1797 45.7676C42.1797 46.8874 42.5704 47.7728 43.3517 48.4238C44.1329 49.0488 45.1094 49.5696 46.2812 49.9863C47.4532 50.403 48.7293 50.7806 50.1095 51.1191C51.5157 51.4316 52.8048 51.8222 53.9767 52.291C55.1485 52.7337 56.1251 53.3327 56.9062 54.0879C57.6876 54.817 58.0781 55.8066 58.0781 57.0566C58.0781 57.7337 57.8698 58.4499 57.4531 59.2051C57.0625 59.9342 56.5287 60.6634 55.8517 61.3926C55.2006 62.0957 54.4583 62.7728 53.625 63.4238C52.7917 64.0749 51.9324 64.6478 51.047 65.1426C50.1876 65.6113 49.3412 66.0019 48.5079 66.3144C47.6746 66.6009 46.9323 66.7441 46.2812 66.7441C46.073 66.7441 45.8516 66.7181 45.6172 66.666C45.3828 66.6139 45.1745 66.5358 44.9922 66.4316C44.8359 66.3014 44.7058 66.1191 44.6017 65.8848C44.5235 65.6504 44.5495 65.3509 44.6797 64.9863ZM76.4767 61.6269C75.4871 62.304 74.6276 62.916 73.8984 63.4629C73.1953 63.9837 72.5053 64.4264 71.8282 64.791C71.1511 65.1556 70.422 65.429 69.6407 65.6113C68.8855 65.7936 67.948 65.8848 66.8282 65.8848C64.4063 65.8848 62.6094 65.2467 61.4375 63.9707C60.2656 62.6686 59.6797 60.7415 59.6797 58.1894C59.6797 57.1999 59.81 56.1712 60.0704 55.1035C60.3308 54.0358 60.7083 52.9811 61.2031 51.9394C61.724 50.8717 62.336 49.8691 63.0392 48.9316C63.7423 47.9681 64.5365 47.1217 65.4219 46.3926C66.3073 45.6634 67.2448 45.0905 68.2344 44.6738C69.25 44.2311 70.3177 44.0098 71.4375 44.0098C73.3125 44.192 74.784 44.6608 75.8517 45.416C76.9194 46.1452 77.7266 47.0957 78.2734 48.2676C78.8203 49.4134 79.1979 50.7025 79.4062 52.1348C79.6146 53.541 79.7708 54.9993 79.875 56.5098C80.0052 58.0202 80.1616 59.5306 80.3439 61.041C80.5261 62.5514 80.9037 63.9446 81.4767 65.2207C81.1381 66.0801 80.8125 66.679 80.5 67.0176C80.2135 67.3821 79.888 67.4472 79.5234 67.2129C79.1589 66.9785 78.7292 66.4056 78.2344 65.4941C77.7656 64.5827 77.1798 63.2936 76.4767 61.6269ZM63 58.2676C63 59.7519 63.2734 60.8457 63.8203 61.5488C64.3932 62.2259 65.3959 62.5644 66.8282 62.5644C67.8959 62.5644 68.9115 62.3821 69.875 62.0176C70.8646 61.6269 71.7241 61.1061 72.4532 60.4551C73.1824 59.778 73.7682 58.9707 74.2109 58.0332C74.6536 57.0957 74.875 56.054 74.875 54.9082C74.875 54.4394 74.8881 53.7884 74.9142 52.9551C74.9402 52.0957 74.888 51.2493 74.7578 50.416C74.6276 49.5827 74.3803 48.8665 74.0157 48.2676C73.6511 47.6426 73.1042 47.3301 72.375 47.3301C71.0208 47.3301 69.7708 47.6816 68.625 48.3848C67.4792 49.0618 66.4896 49.9342 65.6562 51.0019C64.8229 52.0696 64.172 53.2545 63.7032 54.5566C63.2345 55.8327 63 57.0696 63 58.2676ZM83.9375 50.2598C83.9375 50.0254 83.9506 49.791 83.9767 49.5566C84.0027 49.2962 84.0547 49.0749 84.1328 48.8926C84.2109 48.6842 84.3281 48.515 84.4844 48.3848C84.6667 48.2545 84.9142 48.1894 85.2267 48.1894C85.4871 48.1894 85.7734 48.3978 86.0859 48.8144C86.4245 49.2051 86.7631 49.7129 87.1017 50.3379C87.4402 50.9368 87.7657 51.6009 88.0782 52.3301C88.4168 53.0592 88.7031 53.7363 88.9375 54.3613C89.1979 54.9603 89.4062 55.4811 89.5625 55.9238C89.7188 56.3665 89.8099 56.6009 89.8359 56.6269C90.1745 55.7155 90.5522 54.7259 90.9689 53.6582C91.3855 52.5905 91.8933 51.6009 92.4923 50.6894C93.1173 49.7519 93.8465 48.9707 94.6798 48.3457C95.5392 47.7207 96.5808 47.4082 97.8048 47.4082C98.4301 47.4082 99.016 47.5124 99.562 47.7207C100.135 47.903 100.63 48.1894 101.047 48.5801C101.49 48.9446 101.841 49.3874 102.102 49.9082C102.362 50.429 102.492 51.028 102.492 51.7051C102.492 52.278 102.258 52.6816 101.789 52.916C101.346 53.1504 100.839 53.2676 100.266 53.2676H99.875L98.195 51.5879C98.143 51.5879 98.1041 51.5749 98.0781 51.5488C98.0261 51.5488 97.974 51.5488 97.9219 51.5488C97.8958 51.5228 97.8569 51.5098 97.8048 51.5098C96.8933 51.5098 96.1771 51.7702 95.6562 52.291C95.1615 52.7858 94.7839 53.4108 94.5234 54.166C94.263 54.8952 94.0939 55.6764 94.0157 56.5098C93.9636 57.317 93.9375 58.0592 93.9375 58.7363C93.9375 59.2571 93.9897 59.791 94.0939 60.3379C94.198 60.8587 94.3151 61.3795 94.4453 61.9004C94.5755 62.3952 94.6927 62.916 94.7969 63.4629C94.901 63.9837 94.9532 64.5306 94.9532 65.1035C94.9532 66.1972 94.3672 66.7441 93.1953 66.7441C92.5443 66.7441 91.8673 66.4056 91.1642 65.7285C90.461 65.0254 89.7579 64.14 89.0548 63.0722C88.3777 62.0045 87.7267 60.8327 87.1017 59.5566C86.4767 58.2545 85.9297 56.9915 85.4609 55.7676C84.9922 54.5436 84.6147 53.4368 84.3282 52.4472C84.0678 51.4577 83.9375 50.7285 83.9375 50.2598ZM103.039 46.9785C103.039 46.9004 103.052 46.8353 103.078 46.7832C103.078 46.7311 103.091 46.666 103.117 46.5879C103.221 46.4577 103.378 46.2884 103.586 46.0801C103.794 45.8717 103.924 45.7676 103.977 45.7676H111.828C111.828 45.4811 111.789 45.0254 111.711 44.4004C111.633 43.7754 111.555 43.0853 111.477 42.3301C111.424 41.5749 111.411 40.7936 111.438 39.9863C111.464 39.153 111.568 38.4108 111.75 37.7598C111.958 37.0827 112.271 36.5358 112.688 36.1191C113.13 35.6764 113.742 35.4551 114.523 35.4551C114.523 38.0853 114.706 40.1946 115.07 41.7832C115.435 43.3717 115.917 44.5957 116.516 45.4551C117.141 46.3144 117.844 46.8743 118.625 47.1348C119.406 47.3952 120.201 47.5124 121.008 47.4863C121.841 47.4342 122.648 47.304 123.43 47.0957C124.211 46.8874 124.901 46.7441 125.5 46.666C126.125 46.5879 126.62 46.653 126.984 46.8613C127.349 47.0436 127.531 47.4993 127.531 48.2285C127.531 48.7754 127.401 49.166 127.141 49.4004C126.906 49.6348 126.438 49.817 125.734 49.9472C125.526 49.9733 125.174 50.0254 124.68 50.1035C124.211 50.1556 123.677 50.2077 123.078 50.2598C122.479 50.3118 121.841 50.3769 121.164 50.4551C120.487 50.5071 119.849 50.5592 119.25 50.6113C118.651 50.6634 118.104 50.7025 117.609 50.7285C117.115 50.7285 116.75 50.7285 116.516 50.7285C116.516 50.8587 116.503 51.0801 116.477 51.3926C116.451 51.7051 116.438 51.9134 116.438 52.0176C116.438 53.1634 116.62 54.2832 116.984 55.3769C117.349 56.4446 117.74 57.5124 118.156 58.5801C118.599 59.6478 119.003 60.7155 119.367 61.7832C119.732 62.8509 119.914 63.9577 119.914 65.1035C119.914 65.3118 119.888 65.5332 119.836 65.7676C119.81 65.9759 119.732 66.1712 119.602 66.3535C119.497 66.5098 119.328 66.6269 119.094 66.7051C118.885 66.8092 118.586 66.7962 118.195 66.666C117.206 66.4056 116.464 65.8457 115.969 64.9863C115.5 64.1269 115.148 63.1113 114.914 61.9394C114.68 60.7415 114.523 59.4785 114.445 58.1504C114.367 56.8222 114.237 55.5853 114.055 54.4394C113.898 53.2676 113.638 52.278 113.273 51.4707C112.909 50.6374 112.323 50.1295 111.516 49.9472L103.977 48.2285C103.872 48.2285 103.716 48.1243 103.508 47.916C103.299 47.6816 103.169 47.5124 103.117 47.4082C103.091 47.3561 103.078 47.291 103.078 47.2129C103.052 47.1608 103.039 47.0827 103.039 46.9785ZM130.148 41.2754C130.148 40.9889 130.174 40.6374 130.227 40.2207C130.305 39.778 130.422 39.3613 130.578 38.9707C130.76 38.5801 130.982 38.2545 131.242 37.9941C131.503 37.7077 131.841 37.5644 132.258 37.5644C132.284 37.5644 132.349 37.5775 132.453 37.6035C132.557 37.6295 132.622 37.6426 132.648 37.6426C133.091 39.2571 133.352 40.8587 133.43 42.4472C133.508 44.0358 133.482 45.5853 133.352 47.0957C133.221 48.5801 133.026 50.0254 132.766 51.4316C132.505 52.8118 132.284 54.0879 132.102 55.2598C131.945 56.4316 131.841 57.4863 131.789 58.4238C131.763 59.3613 131.906 60.1556 132.219 60.8066C132.167 60.39 132.128 59.8952 132.102 59.3222C132.102 58.7233 132.154 58.1113 132.258 57.4863C132.388 56.8613 132.583 56.2363 132.844 55.6113C133.13 54.9863 133.534 54.4264 134.055 53.9316C134.576 53.4368 135.24 53.0462 136.047 52.7598C136.88 52.4733 137.909 52.3301 139.133 52.3301C140.409 52.3301 141.503 52.5514 142.414 52.9941C143.352 53.4368 144.12 54.0488 144.719 54.8301C145.318 55.5853 145.76 56.4837 146.047 57.5254C146.359 58.541 146.516 59.6348 146.516 60.8066C146.516 61.3535 146.503 61.9785 146.477 62.6816C146.477 63.3587 146.385 63.9967 146.203 64.5957C146.047 65.1686 145.747 65.6634 145.305 66.0801C144.888 66.4707 144.263 66.666 143.43 66.666C143.43 66.2493 143.456 65.6894 143.508 64.9863C143.56 64.2571 143.586 63.4889 143.586 62.6816C143.612 61.8743 143.586 61.054 143.508 60.2207C143.456 59.3874 143.286 58.6452 143 57.9941C142.714 57.317 142.31 56.7702 141.789 56.3535C141.294 55.9108 140.604 55.6894 139.719 55.6894C139.406 55.6894 139.016 55.7155 138.547 55.7676C138.104 55.7936 137.648 55.9108 137.18 56.1191C136.711 56.3275 136.255 56.653 135.812 57.0957C135.37 57.5124 135.018 58.0983 134.758 58.8535C134.497 59.5827 134.341 60.5202 134.289 61.666C134.263 62.7858 134.406 64.166 134.719 65.8066C134.536 66.2754 134.302 66.5488 134.016 66.6269C133.755 66.7051 133.417 66.7441 133 66.7441C132.167 66.7441 131.477 66.4577 130.93 65.8848C130.409 65.2858 130.005 64.4915 129.719 63.5019C129.432 62.5124 129.237 61.3665 129.133 60.0644C129.055 58.7624 129.029 57.4082 129.055 56.0019C129.081 54.5696 129.146 53.1243 129.25 51.666C129.38 50.1816 129.497 48.7884 129.602 47.4863C129.732 46.1582 129.849 44.9603 129.953 43.8926C130.083 42.7988 130.148 41.9264 130.148 41.2754ZM164.875 61.6269C163.885 62.304 163.026 62.916 162.297 63.4629C161.594 63.9837 160.904 64.4264 160.227 64.791C159.549 65.1556 158.82 65.429 158.039 65.6113C157.284 65.7936 156.346 65.8848 155.227 65.8848C152.805 65.8848 151.008 65.2467 149.836 63.9707C148.664 62.6686 148.078 60.7415 148.078 58.1894C148.078 57.1999 148.208 56.1712 148.469 55.1035C148.729 54.0358 149.107 52.9811 149.602 51.9394C150.122 50.8717 150.734 49.8691 151.438 48.9316C152.141 47.9681 152.935 47.1217 153.82 46.3926C154.706 45.6634 155.643 45.0905 156.633 44.6738C157.648 44.2311 158.716 44.0098 159.836 44.0098C161.711 44.192 163.182 44.6608 164.25 45.416C165.318 46.1452 166.125 47.0957 166.672 48.2676C167.219 49.4134 167.596 50.7025 167.805 52.1348C168.013 53.541 168.169 54.9993 168.273 56.5098C168.404 58.0202 168.56 59.5306 168.742 61.041C168.924 62.5514 169.302 63.9446 169.875 65.2207C169.536 66.0801 169.211 66.679 168.898 67.0176C168.612 67.3821 168.286 67.4472 167.922 67.2129C167.557 66.9785 167.128 66.4056 166.633 65.4941C166.164 64.5827 165.578 63.2936 164.875 61.6269ZM151.398 58.2676C151.398 59.7519 151.672 60.8457 152.219 61.5488C152.792 62.2259 153.794 62.5644 155.227 62.5644C156.294 62.5644 157.31 62.3821 158.273 62.0176C159.263 61.6269 160.122 61.1061 160.852 60.4551C161.581 59.778 162.167 58.9707 162.609 58.0332C163.052 57.0957 163.273 56.054 163.273 54.9082C163.273 54.4394 163.286 53.7884 163.312 52.9551C163.339 52.0957 163.286 51.2493 163.156 50.416C163.026 49.5827 162.779 48.8665 162.414 48.2676C162.049 47.6426 161.503 47.3301 160.773 47.3301C159.419 47.3301 158.169 47.6816 157.023 48.3848C155.878 49.0618 154.888 49.9342 154.055 51.0019C153.221 52.0696 152.57 53.2545 152.102 54.5566C151.633 55.8327 151.398 57.0696 151.398 58.2676ZM179.914 65.8848C179.497 66.2493 179.055 66.0801 178.586 65.3769C178.143 64.6738 177.688 63.6191 177.219 62.2129C176.75 60.7806 176.281 59.0749 175.812 57.0957C175.37 55.1165 174.94 53.0202 174.523 50.8066C174.107 48.5931 173.703 46.3535 173.312 44.0879C172.948 41.7962 172.622 39.6478 172.336 37.6426C172.336 37.278 172.323 36.9134 172.297 36.5488C172.297 36.1582 172.336 35.8066 172.414 35.4941C172.518 35.1556 172.688 34.8561 172.922 34.5957C173.182 34.3353 173.573 34.14 174.094 34.0098C174.146 33.9837 174.25 34.0098 174.406 34.0879C174.589 34.14 174.771 34.2181 174.953 34.3222C175.135 34.4004 175.292 34.4915 175.422 34.5957C175.578 34.6999 175.682 34.791 175.734 34.8691C175.396 39.7389 175.956 44.4785 177.414 49.0879C177.492 49.0098 177.701 48.7493 178.039 48.3066C178.378 47.8379 178.807 47.304 179.328 46.7051C179.849 46.0801 180.435 45.416 181.086 44.7129C181.763 44.0098 182.466 43.3587 183.195 42.7598C183.924 42.1608 184.654 41.666 185.383 41.2754C186.112 40.8587 186.815 40.6504 187.492 40.6504C187.883 40.6504 188.26 40.7415 188.625 40.9238C189.016 41.1061 189.211 41.4577 189.211 41.9785C189.211 42.0306 189.198 42.1087 189.172 42.2129C189.146 42.291 189.133 42.3561 189.133 42.4082C188.716 42.7728 188.078 43.3327 187.219 44.0879C186.385 44.8431 185.5 45.6894 184.562 46.6269C183.625 47.5644 182.727 48.541 181.867 49.5566C181.008 50.5722 180.357 51.5358 179.914 52.4472C179.836 52.6035 179.81 52.7467 179.836 52.8769C179.862 52.9811 179.888 53.1113 179.914 53.2676C180.201 53.3717 180.656 53.528 181.281 53.7363C181.906 53.9446 182.596 54.192 183.352 54.4785C184.107 54.7389 184.914 55.0254 185.773 55.3379C186.633 55.6243 187.44 55.9108 188.195 56.1972C188.951 56.4837 189.628 56.7441 190.227 56.9785C190.852 57.1868 191.32 57.3431 191.633 57.4472C191.997 57.6035 192.297 57.7077 192.531 57.7598C192.766 57.8118 192.948 57.89 193.078 57.9941C193.208 58.0722 193.299 58.1894 193.352 58.3457C193.404 58.5019 193.43 58.7363 193.43 59.0488C193.43 59.804 193.247 60.2988 192.883 60.5332C192.518 60.7676 191.997 60.8848 191.32 60.8848C189.315 60.7545 187.349 60.3379 185.422 59.6348C183.495 58.9056 181.542 58.0332 179.562 57.0176C179.484 57.5124 179.51 58.0853 179.641 58.7363C179.797 59.3874 179.979 60.0384 180.188 60.6894C180.396 61.3405 180.591 61.9785 180.773 62.6035C180.982 63.2285 181.099 63.7884 181.125 64.2832C181.177 64.778 181.125 65.1686 180.969 65.4551C180.812 65.7415 180.461 65.8848 179.914 65.8848ZM199.602 63.5019C200.773 63.5019 201.359 64.1139 201.359 65.3379C201.073 66.0931 200.708 66.5879 200.266 66.8222C199.823 67.0827 199.406 67.1738 199.016 67.0957C198.651 67.0436 198.312 66.8613 198 66.5488C197.714 66.2363 197.557 65.8848 197.531 65.4941C197.505 65.1035 197.648 64.7259 197.961 64.3613C198.273 63.9707 198.82 63.6842 199.602 63.5019Z" fill="#111111"/>
<path d="M98 26.5C98 13.5213 87.4787 3 74.5 3H26.5C13.5213 3 3 13.5213 3 26.5V74.5C3 87.4787 13.5213 98 26.5 98H74.5C87.4787 98 98 87.4787 98 74.5" stroke="url(#paint0_linear_225_54)" stroke-width="5"/>
<defs>
<linearGradient id="paint0_linear_225_54" x1="50.5" y1="0.5" x2="50.5" y2="100.5" gradientUnits="userSpaceOnUse">
<stop stop-color="#F12711"/>
<stop offset="1" stop-color="#F5AF19"/>
</linearGradient>
</defs>
</svg>
